<?xml version="1.0" encoding="UTF-8"?>
<svg id="Layer_1" xmlns="http://www.w3.org/2000/svg" version="1.1" viewBox="0 0 101.25 97.91">
  <!-- Generator: Adobe Illustrator 29.7.1, SVG Export Plug-In . SVG Version: 2.1.1 Build 8)  -->
  <defs>
    <style>
      .st0, .st1 {
        fill: #231f20;
      }

      .st2 {
        fill: #fff;
      }

      .st1 {
        stroke: #fff;
        stroke-miterlimit: 10;
        stroke-width: .63px;
      }
    </style>
  </defs>
  <g>
    <g>
      <path class="st0" d="M19.54,88.8c-4.49,0-6.58-1.8-6.58-5.67v-3.44c0-3.82,2.09-5.59,6.58-5.59h7.62l-.31,2.19c-.1.71-.51,1.06-1.26,1.06h-6.01c-2.03,0-2.75.6-2.75,2.3v3.6c0,1.7.72,2.3,2.75,2.3h1.62c2.06,0,2.79-.57,2.79-2.18v-.08h-1.54c-.69,0-1.1-.34-1.2-1l-.31-2.1h5.49c.81,0,1.2.39,1.2,1.2v7.23h-1.88c-.64,0-.99-.24-1.15-.8l-.11-.41c-.81.95-1.97,1.38-3.69,1.38h-1.27Z"/>
      <path class="st2" d="M26.8,74.41l-.26,1.84c-.08.55-.36.79-.95.79h-6.01c-2.19,0-3.06.73-3.06,2.61v3.6c0,1.88.87,2.61,3.06,2.61h1.62c2.21,0,3.11-.69,3.11-2.49v-.4h-1.86c-.53,0-.81-.22-.89-.73l-.26-1.74h5.12c.63,0,.89.26.89.89v6.92h-1.56c-.52,0-.73-.16-.85-.57l-.24-.91h-.12c-.75,1.15-1.9,1.66-3.74,1.66h-1.27c-4.33,0-6.27-1.66-6.27-5.36v-3.44c0-3.66,1.92-5.28,6.27-5.28h7.26M27.52,73.79h-7.98c-4.71,0-6.9,1.88-6.9,5.91v3.44c0,4.03,2.26,5.99,6.9,5.99h1.27c1.54,0,2.68-.35,3.53-1.09.23.62.69.91,1.42.91h2.19v-7.55c0-.98-.54-1.52-1.52-1.52h-5.85l.11.72.26,1.74c.13.82.66,1.27,1.51,1.27h1.23c-.05,1.11-.5,1.63-2.47,1.63h-1.62c-2.07,0-2.44-.64-2.44-1.98v-3.6c0-1.35.36-1.99,2.44-1.99h6.01c1.14,0,1.48-.72,1.57-1.33l.26-1.84.1-.71h0Z"/>
    </g>
    <g>
      <path class="st0" d="M39.83,88.63c-.61,0-1.08-.11-1.51-.68l-3.32-4.01c-.35-.42-.45-.76-.45-1.59v-1.81h3.14c1.09,0,1.31-.43,1.31-1.17v-.87c0-.85-.34-1.15-1.31-1.15h-3.19v-3.25h3.25c3.41,0,5.14,1.5,5.14,4.47v.53c.04,2.4-1.2,3.82-3.61,4.14.11.09.21.2.31.33l4.29,5.06h-4.06ZM29.45,88.63v-14.53h3.87v14.53h-3.87Z"/>
      <path class="st2" d="M37.76,74.41c3.2,0,4.82,1.36,4.82,4.15v.53c.04,2.53-1.44,3.82-4.15,3.9h-.32v.18c.6,0,.89.16,1.25.6l3.86,4.55h-3.38c-.59,0-.93-.12-1.27-.55l-3.32-4.01c-.3-.36-.37-.63-.37-1.39v-1.5h2.83c1.16,0,1.62-.47,1.62-1.48v-.87c0-1.03-.5-1.47-1.62-1.47h-2.88v-2.63h2.94M33.01,74.41v13.9h-3.24v-13.9h3.24M37.76,73.79h-3.56v3.88h3.51c.9,0,.99.27.99.84v.87c0,.58-.1.86-.99.86h-3.46v2.13c0,.79.08,1.26.52,1.79l3.32,4.01c.5.65,1.06.78,1.75.78h4.74l-.88-1.03-3.79-4.47c2.18-.5,3.34-2.01,3.3-4.35v-.52c0-2.18-.95-4.78-5.45-4.78h0ZM33.63,73.79h-4.5v15.16h4.5v-15.16h0Z"/>
    </g>
    <g>
      <path class="st0" d="M50.41,88.8c-4.45,0-6.52-1.85-6.52-5.83v-3.22c0-3.98,2.07-5.83,6.52-5.83h2.53c4.45,0,6.52,1.85,6.52,5.83v3.22c0,3.98-2.07,5.83-6.52,5.83h-2.53ZM50.45,77.2c-2.26,0-2.69.86-2.69,2.46v3.42c0,1.59.43,2.46,2.69,2.46h2.45c2.26,0,2.69-.86,2.69-2.46v-3.42c0-1.59-.43-2.46-2.69-2.46h-2.45Z"/>
      <path class="st2" d="M52.94,74.23c4.43,0,6.21,1.88,6.21,5.52v3.22c0,3.64-1.78,5.52-6.21,5.52h-2.53c-4.43,0-6.21-1.88-6.21-5.52v-3.22c0-3.64,1.78-5.52,6.21-5.52h2.53M50.45,85.84h2.45c2.32,0,3.01-.87,3.01-2.77v-3.42c0-1.9-.69-2.77-3.01-2.77h-2.45c-2.31,0-3.01.87-3.01,2.77v3.42c0,1.9.69,2.77,3.01,2.77M52.94,73.61h-2.53c-4.6,0-6.84,2.01-6.84,6.14v3.22c0,4.13,2.24,6.14,6.84,6.14h2.53c4.6,0,6.84-2.01,6.84-6.14v-3.22c0-4.13-2.24-6.14-6.84-6.14h0ZM50.45,85.22c-2.03,0-2.38-.66-2.38-2.14v-3.42c0-1.48.34-2.14,2.38-2.14h2.45c2.03,0,2.38.66,2.38,2.14v3.42c0,1.48-.34,2.14-2.38,2.14h-2.45Z"/>
    </g>
    <g>
      <path class="st0" d="M67.6,88.8c-4.49,0-6.58-1.8-6.58-5.67v-9.03h3.87v9.13c0,1.7.72,2.3,2.75,2.3h.65c2.03,0,2.75-.6,2.75-2.3v-9.13h3.87v9.03c0,3.87-2.09,5.67-6.56,5.67h-.75Z"/>
      <path class="st2" d="M74.6,74.41v8.72c0,3.62-1.84,5.36-6.25,5.36h-.75c-4.43,0-6.27-1.74-6.27-5.36v-8.72h3.24v8.82c0,1.9.91,2.61,3.07,2.61h.65c2.16,0,3.06-.71,3.06-2.61v-8.82h3.24M75.23,73.79h-4.5v9.44c0,1.32-.38,1.99-2.44,1.99h-.65c-2.06,0-2.44-.67-2.44-1.99v-9.44h-4.5v9.35c0,4.08,2.19,5.99,6.9,5.99h.75c4.63,0,6.88-1.96,6.88-5.99v-9.35h0Z"/>
    </g>
    <g>
      <path class="st0" d="M77.06,88.63v-14.53h3.87v14.53h-3.87ZM81.82,84.18v-3.26h3.21c1.26,0,1.51-.49,1.51-1.33v-.91c0-.98-.39-1.33-1.51-1.33h-3.21v-3.25h3.31c3.45,0,5.28,1.61,5.28,4.64v.79c.02,1.39-.36,2.5-1.14,3.28-.89.9-2.29,1.36-4.14,1.36h-3.31Z"/>
      <path class="st2" d="M85.12,74.41c3.3,0,4.97,1.46,4.97,4.33v.79c.04,2.85-1.66,4.33-4.97,4.33h-2.99v-2.63h2.9c1.3,0,1.82-.49,1.82-1.64v-.91c0-1.17-.53-1.64-1.82-1.64h-2.9v-2.63h2.99M80.61,74.41v13.9h-3.24v-13.9h3.24M85.12,73.79h-3.62v3.88h3.52c1.07,0,1.19.33,1.19,1.02v.91c0,.69-.12,1.01-1.19,1.01h-3.52v3.88h3.62c1.94,0,3.41-.49,4.36-1.46.84-.85,1.25-2.03,1.23-3.51v-.78c0-2.26-.97-4.96-5.59-4.96h0ZM81.24,73.79h-4.5v15.16h4.5v-15.16h0Z"/>
    </g>
  </g>
  <g>
    <polygon class="st0" points="97.36 58.96 97.36 3.89 33.41 3.89 33.41 .31 100.94 .31 100.94 58.96 97.36 58.96"/>
    <path class="st2" d="M100.63.63v58.02h-2.95V3.58h-63.96V.63h66.91M101.25,0H33.09v4.2h63.96v55.07h4.2V0h0Z"/>
  </g>
  <g>
    <polygon class="st0" points=".31 97.59 .31 38.95 3.89 38.95 3.89 94.02 67.85 94.02 67.85 97.59 .31 97.59"/>
    <path class="st2" d="M3.58,39.26v55.07h63.96v2.95H.63v-58.02h2.95M4.2,38.63H0v59.27h68.16v-4.2H4.2v-55.07h0Z"/>
  </g>
  <g>
    <polygon class="st0" points="97.36 58.96 97.36 3.89 33.41 3.89 33.41 .31 100.94 .31 100.94 58.96 97.36 58.96"/>
    <path class="st2" d="M100.63.63v58.02h-2.95V3.58h-63.96V.63h66.91M101.25,0H33.09v4.2h63.96v55.07h4.2V0h0Z"/>
  </g>
  <g>
    <polygon class="st0" points=".31 97.59 .31 38.95 3.89 38.95 3.89 94.02 67.85 94.02 67.85 97.59 .31 97.59"/>
    <path class="st2" d="M3.58,39.26v55.07h63.96v2.95H.63v-58.02h2.95M4.2,38.63H0v59.27h68.16v-4.2H4.2v-55.07h0Z"/>
  </g>
  <path class="st1" d="M67.53,95.8"/>
  <path class="st1" d="M99.15,58.65"/>
  <g>
    <g>
      <path class="st0" d="M44.49,65.42v-14.66h-13.8l-7.38,14.66h-9.01L40.68,13.56h12.05v51.86h-8.24ZM44.37,43.59v-19.91l-9.8,19.91h9.8Z"/>
      <path class="st2" d="M52.42,13.87v51.24h-7.62v-14.66h-14.31l-7.38,14.66h-8.31L40.88,13.87h11.54M34.07,43.9h10.62v-21.57l-10.62,21.57M53.04,13.24h-12.55l-.17.34-26.08,51.24-.46.91h9.72l.17-.34,7.21-14.31h13.3v14.66h8.87V13.24h0ZM35.07,43.27l8.98-18.25v18.25h-8.98Z"/>
    </g>
    <g>
      <path class="st0" d="M54.76,53.63v-8.85h9.08c5.97,0,10.82-5.02,10.82-11.19s-4.85-11.19-10.82-11.19h-9.43v-8.85h9.43c10.7,0,19.41,8.99,19.41,20.03s-8.71,20.03-19.41,20.03h-9.08Z"/>
      <path class="st2" d="M63.84,13.87c10.53,0,19.1,8.85,19.1,19.72s-8.57,19.72-19.1,19.72h-8.77v-8.22h8.77c6.14,0,11.14-5.16,11.14-11.5s-5-11.5-11.14-11.5h-9.12v-8.22h9.12M63.84,13.24h-9.74v9.48h9.74c5.79,0,10.51,4.88,10.51,10.87s-4.71,10.87-10.51,10.87h-9.4v9.48h9.4c10.88,0,19.73-9.13,19.73-20.35s-8.85-20.35-19.73-20.35h0Z"/>
    </g>
  </g>
</svg>